<svg xmlns="http://www.w3.org/2000/svg" viewBox="0 0 64 64" fill="currentColor">
  <!-- Large Poison Droplet -->
  <path d="M32 5 C32 5 13 27 13 41 C13 51.5 21.5 60 32 60 C42.5 60 51 51.5 51 41 C51 27 32 5 32 5 Z" opacity="0.9" />
  <!-- Shading Highlight -->
  <path d="M22 28 C18 35 18 42 22 48 C20 42 21 34 25 28 C26 26 24 26 22 28 Z" fill="#ffffff" opacity="0.6" />
  <!-- Skull in Poison Silhouette -->
  <!-- Skull Cranium -->
  <circle cx="32" cy="38" r="9" fill="#0c141f" />
  <!-- Skull Jaw -->
  <rect x="28" y="44" width="8" height="5" rx="1" fill="#0c141f" />
  <!-- Eye Sockets -->
  <ellipse cx="29" cy="37" rx="2.5" ry="3" fill="#ffffff" opacity="0.9" />
  <ellipse cx="35" cy="37" rx="2.5" ry="3" fill="#ffffff" opacity="0.9" />
  <!-- Nose cavity -->
  <path d="M32 41 L31 43 H33 Z" fill="#ffffff" opacity="0.9" />
  <!-- Teeth slits -->
  <line x1="30.5" y1="46" x2="30.5" y2="48" stroke="#ffffff" stroke-width="0.8" />
  <line x1="33.5" y1="46" x2="33.5" y2="48" stroke="#ffffff" stroke-width="0.8" />
  <!-- Toxic Bubbles -->
  <circle cx="45" cy="18" r="3" opacity="0.8" />
  <circle cx="48" cy="11" r="1.5" opacity="0.6" />
  <circle cx="18" cy="20" r="2" opacity="0.7" />
</svg>
